HIERARCHY
ROOT Hips
{
 OFFSET 0.000000 0.000000 0.000000
 CHANNELS 6 Xposition Yposition Zposition Yrotation Xrotation Zrotation
 JOINT Chest
 {
  OFFSET 0.000000 9.585900 0.002600
  CHANNELS 3 Yrotation Xrotation Zrotation
  JOINT Chest2
  {
   OFFSET 0.000000 9.601200 -0.005300
   CHANNELS 3 Yrotation Xrotation Zrotation
   JOINT Chest3
   {
    OFFSET 0.000000 9.561800 0.000000
    CHANNELS 3 Yrotation Xrotation Zrotation
    JOINT Chest4
    {
     OFFSET 0.000000 9.552100 0.000000
     CHANNELS 3 Yrotation Xrotation Zrotation
     JOINT Neck
     {
      OFFSET 0.000000 14.453000 0.000000
      CHANNELS 3 Yrotation Xrotation Zrotation
      JOINT Head
      {
       OFFSET 0.000000 8.936500 -0.011300
       CHANNELS 3 Yrotation Xrotation Zrotation
       End Site
       {
        OFFSET 0.000000 17.073600 -0.006000
       }
      }
     }
     JOINT RightCollar
     {
      OFFSET -2.921100 9.558500 0.000000
      CHANNELS 3 Yrotation Xrotation Zrotation
      JOINT RightShoulder
      {
       OFFSET -13.519700 0.000000 0.000000
       CHANNELS 3 Yrotation Xrotation Zrotation
       JOINT RightElbow
       {
        OFFSET 0.000000 -29.696600 0.000000
        CHANNELS 3 Yrotation Xrotation Zrotation
        JOINT RightWrist
        {
         OFFSET 0.000000 -24.004700 0.000000
         CHANNELS 3 Yrotation Xrotation Zrotation
         End Site
         {
          OFFSET 0.000000 -17.728500 0.000000
         }
        }
       }
      }
     }
     JOINT LeftCollar
     {
      OFFSET 2.921100 9.558500 0.000000
      CHANNELS 3 Yrotation Xrotation Zrotation
      JOINT LeftShoulder
      {
       OFFSET 13.519700 0.000000 0.000000
       CHANNELS 3 Yrotation Xrotation Zrotation
       JOINT LeftElbow
       {
        OFFSET 0.000000 -29.696600 0.000000
        CHANNELS 3 Yrotation Xrotation Zrotation
        JOINT LeftWrist
        {
         OFFSET 0.000000 -24.004700 0.000000
         CHANNELS 3 Yrotation Xrotation Zrotation
         End Site
         {
          OFFSET 0.000000 -17.728500 0.000000
         }
        }
       }
      }
     }
    }
   }
  }
 }
 JOINT RightHip
 {
  OFFSET -7.771700 -0.012900 -0.001300
  CHANNELS 3 Yrotation Xrotation Zrotation
  JOINT RightKnee
  {
   OFFSET 0.000000 -40.869800 0.001200
   CHANNELS 3 Yrotation Xrotation Zrotation
   JOINT RightAnkle
   {
    OFFSET 0.000000 -39.717900 0.002100
    CHANNELS 3 Yrotation Xrotation Zrotation
    JOINT RightToe
    {
     OFFSET 0.000000 -4.965400 11.033500
     CHANNELS 3 Yrotation Xrotation Zrotation
     End Site
     {
      OFFSET 0.000000 -1.423100 5.872300
     }
    }
   }
  }
 }
 JOINT LeftHip
 {
  OFFSET 7.771700 -0.012900 -0.001300
  CHANNELS 3 Yrotation Xrotation Zrotation
  JOINT LeftKnee
  {
   OFFSET 0.000000 -40.869800 0.001200
   CHANNELS 3 Yrotation Xrotation Zrotation
   JOINT LeftAnkle
   {
    OFFSET 0.000000 -39.717900 0.002100
    CHANNELS 3 Yrotation Xrotation Zrotation
    JOINT LeftToe
    {
     OFFSET 0.000000 -4.965400 11.033500
     CHANNELS 3 Yrotation Xrotation Zrotation
     End Site
     {
      OFFSET 0.000000 -1.423100 5.872300
     }
    }
   }
  }
 }
}
MOTION
Frames: 12
Frame Time: 0.008333
-20.828268 56.838748 31.177787 168.653557 -49.077110 -0.511232 6.020528 27.795752 4.342279 0.980415 5.271013 0.385901 1.552861 8.126207 0.636465 4.741012 22.716107 2.444988 0.517928 4.323359 -2.013766 2.219128 -27.780248 -4.429216 3.374504 2.428669 0.532776 18.396832 -24.537686 -11.620804 84.775195 -46.653393 -63.487036 19.561095 14.145100 -3.319006 -7.727129 -1.076229 -1.203485 -12.649601 -18.002555 6.698208 -94.765251 -49.710005 70.182519 -36.543162 7.864110 -4.272201 13.235550 -27.314503 4.544676 -13.199665 69.031093 -9.928449 -0.930027 16.109702 0.046840 -0.582056 -9.963536 6.215546 -3.818131 -29.499388 2.068339 36.091325 65.834461 30.923853 -6.856224 25.045686 2.521085 -0.717007 -11.155800 -1.465578
-20.825503 56.830328 31.161873 168.604385 -48.985588 -0.475775 6.052975 27.759666 4.338992 0.984614 5.325972 0.389532 1.559547 8.166476 0.635722 4.746542 22.701010 2.433747 0.502836 4.093028 -2.031537 2.215041 -28.188481 -4.470328 3.269939 2.433768 0.510724 17.917285 -23.736204 -11.116825 86.371115 -46.990532 -65.224319 19.615318 14.382412 -3.413714 -7.632451 -1.046711 -1.149351 -12.490227 -17.202370 6.556187 -96.124397 -50.106169 71.712291 -36.457105 7.914266 -3.992426 13.244697 -27.430602 4.465367 -13.060849 69.099452 -9.752289 -0.856114 16.116764 0.053418 -0.648644 -9.998615 6.179498 -3.798599 -29.600404 2.155220 36.056635 65.899266 30.844675 -7.004433 25.061093 2.419788 -0.598943 -11.198943 -1.396786
-20.817553 56.826578 31.141243 168.531854 -48.918525 -0.451031 6.122646 27.794721 4.378093 0.985969 5.321489 0.387380 1.564345 8.197640 0.634877 4.736237 22.601024 2.415108 0.495013 3.973731 -2.049498 2.206705 -28.545461 -4.514645 3.187335 2.531326 0.497057 17.469875 -22.936312 -10.652361 87.897868 -47.343532 -66.867313 19.669661 14.586011 -3.571221 -7.518358 -0.924491 -1.109269 -12.327367 -16.417585 6.422500 -97.463958 -50.485276 73.179485 -36.353266 7.959932 -3.652843 13.253687 -27.516486 4.439083 -12.927819 69.147274 -9.599699 -0.780759 16.121864 0.076582 -0.719185 -10.026131 6.142429 -3.759887 -29.670979 2.239642 36.128030 65.973883 30.879492 -7.060364 24.957590 2.426338 -0.572557 -11.162296 -1.382128
-20.813161 56.820229 31.120880 168.518029 -48.818821 -0.451975 6.146524 27.861685 4.402459 0.984774 5.224852 0.374544 1.565349 8.214408 0.636783 4.753193 22.675883 2.413768 0.467532 3.731805 -2.073877 2.194124 -28.848454 -4.562011 3.100447 2.488835 0.470771 17.040570 -22.149829 -10.226240 89.371240 -47.690249 -68.420839 19.732827 14.734117 -3.769445 -7.410006 -0.940527 -1.061233 -12.161178 -15.659608 6.297302 -98.764318 -50.844947 74.552738 -36.225660 7.993648 -3.260304 13.245774 -27.623893 4.401067 -12.847013 69.184757 -9.506671 -0.739450 16.116146 0.085590 -0.757297 -10.042807 6.120711 -3.742290 -29.774981 2.301137 36.068741 66.023525 30.814746 -7.151774 24.970072 2.358293 -0.494622 -11.202681 -1.337215
-20.809894 56.816064 31.097387 168.525746 -48.725972 -0.459299 6.141519 27.876804 4.411762 0.985003 5.196758 0.370172 1.565463 8.207670 0.634455 4.755708 22.678204 2.406616 0.446146 3.587028 -2.095205 2.173178 -29.098922 -4.605903 3.031282 2.530050 0.447963 16.618764 -21.384479 -9.835430 90.806253 -48.012373 -69.892448 19.823726 14.825095 -3.991446 -7.287827 -0.874308 -1.029711 -11.984994 -14.933368 6.181804 -100.018138 -51.186969 75.824899 -36.081631 8.018408 -2.826916 13.218522 -27.722037 4.342620 -12.714098 69.237306 -9.350236 -0.709327 16.108559 0.072245 -0.792451 -10.068627 6.102949 -3.724544 -29.873199 2.347266 35.999937 66.075000 30.748387 -7.247899 24.987560 2.283739 -0.414926 -11.252101 -1.287949
-20.806339 56.817707 31.068134 168.518964 -48.671085 -0.449880 6.144120 27.896862 4.416099 0.983915 5.209344 0.372763 1.564470 8.167879 0.624809 4.753249 22.648788 2.395402 0.426633 3.506998 -2.108448 2.144433 -29.298383 -4.642555 2.970310 2.624204 0.438368 16.207559 -20.644495 -9.478968 92.196568 -48.292400 -71.267788 19.945155 14.874584 -4.247649 -7.160897 -0.756852 -0.997522 -11.799185 -14.243054 6.076123 -101.220578 -51.504205 76.994051 -35.933331 8.039163 -2.349057 13.195839 -27.773811 4.284903 -12.538176 69.293036 -9.151706 -0.685023 16.081243 0.056329 -0.823162 -10.084483 6.083921 -3.703811 -29.930997 2.364630 36.009959 66.122201 30.757561 -7.286544 24.975477 2.255585 -0.389407 -11.310662 -1.262376
-20.798281 56.820860 31.038231 168.520527 -48.622024 -0.470839 6.156011 27.910947 4.448291 0.982383 5.174632 0.364785 1.563566 8.151956 0.620896 4.757652 22.678735 2.406059 0.403125 3.408245 -2.135564 2.112915 -29.448250 -4.675945 2.909454 2.685500 0.420674 15.816926 -19.930529 -9.154341 93.543461 -48.507608 -72.545428 20.086312 14.880624 -4.575156 -7.033499 -0.676682 -0.967677 -11.614185 -13.591854 5.981080 -102.375001 -51.768599 78.072506 -35.778461 8.047660 -1.829424 13.172078 -27.826190 4.272642 -12.423606 69.345069 -9.019386 -0.678294 16.052610 0.046412 -0.847858 -10.099117 6.071267 -3.651339 -29.984850 2.406667 35.949358 66.187647 30.739999 -7.382421 24.958292 2.176554 -0.321813 -11.352607 -1.211549
-20.793831 56.816384 31.014640 168.490970 -48.508368 -0.452827 6.173680 27.827808 4.447267 0.981712 5.170890 0.363732 1.563926 8.164090 0.624547 4.758469 22.662672 2.398718 0.378179 3.344348 -2.156172 2.079032 -29.553486 -4.707796 2.850102 2.764495 0.413639 15.457504 -19.245428 -8.861636 94.851063 -48.627170 -73.730149 20.222669 14.836575 -4.996062 -6.904455 -0.580163 -0.926401 -11.438009 -12.984200 5.898344 -103.508405 -51.952208 79.093197 -35.609658 8.033599 -1.284921 13.195703 -27.949087 4.235090 -12.343254 69.399247 -8.928116 -0.697709 16.011340 0.034771 -0.843247 -10.095849 6.066298 -3.550476 -30.106273 2.410240 35.883673 66.246674 30.740245 -7.443638 24.913964 2.112209 -0.280814 -11.366000 -1.163906
-20.787887 56.820878 30.983934 168.446793 -48.464222 -0.421863 6.204762 27.812717 4.452485 0.987035 5.230336 0.378428 1.561196 8.131045 0.619004 4.744955 22.624420 2.381825 0.361587 3.299830 -2.180828 2.039739 -29.616147 -4.735045 2.799606 2.847740 0.404512 15.131742 -18.599677 -8.604162 96.106106 -48.645149 -74.816492 20.317998 14.742462 -5.495351 -6.764395 -0.482124 -0.882199 -11.272221 -12.427878 5.828851 -104.640821 -52.047193 80.071611 -35.425451 7.990559 -0.720503 13.216200 -28.002240 4.197309 -12.212771 69.477831 -8.771358 -0.713388 15.946777 0.012380 -0.837367 -10.092276 6.055437 -3.439076 -30.156015 2.388222 35.939196 66.313361 30.862699 -7.480219 24.790461 2.095344 -0.274025 -11.338025 -1.149942
-20.788665 56.819688 30.958181 168.419242 -48.373787 -0.367458 6.220664 27.824220 4.433723 0.981536 5.164534 0.365826 1.561586 8.112040 0.616498 4.747541 22.616345 2.380522 0.336786 3.275944 -2.202418 1.991370 -29.635735 -4.753814 2.738694 2.937648 0.401122 14.830510 -18.007667 -8.387338 97.281821 -48.609327 -75.793873 20.355445 14.572191 -6.031604 -6.633762 -0.377663 -0.829959 -11.114645 -11.931797 5.773925 -105.752725 -52.075611 80.989132 -35.230628 7.915614 -0.143774 13.248428 -28.107345 4.108908 -12.125694 69.558090 -8.668047 -0.708247 15.933440 0.012101 -0.849915 -10.127346 6.038626 -3.315133 -30.251949 2.314611 35.940813 66.338409 30.944089 -7.526039 24.755671 2.066221 -0.253169 -11.355986 -1.136881
-20.786124 56.823541 30.930399 168.408737 -48.323185 -0.340264 6.227816 27.812288 4.423237 0.982350 5.150858 0.364203 1.563009 8.092014 0.614038 4.768146 22.588448 2.378953 0.293635 3.291413 -2.213537 1.930168 -29.615079 -4.760718 2.657081 3.053444 0.408108 14.546223 -17.479697 -8.216964 98.349286 -48.593251 -76.633783 20.356711 14.322032 -6.573078 -6.526637 -0.246041 -0.768667 -10.965118 -11.501957 5.738773 -106.803045 -52.087011 81.819701 -35.034121 7.824724 0.422533 13.255583 -28.165414 4.073211 -12.128856 69.611851 -8.677539 -0.692779 15.936320 0.025610 -0.847635 -10.170909 6.023411 -3.210658 -30.304982 2.249786 35.957891 66.354081 31.041800 -7.553950 24.738571 2.047628 -0.250812 -11.386350 -1.127561
-20.783640 56.828104 30.904364 168.390652 -48.278697 -0.306605 6.239068 27.797052 4.410052 0.983740 5.136410 0.362689 1.565388 8.070770 0.611689 4.759804 22.591723 2.377310 0.280852 3.294436 -2.226501 1.858726 -29.557048 -4.760454 2.601891 3.148051 0.402736 14.269113 -17.026626 -8.092098 99.315740 -48.638008 -77.332204 20.341876 14.021097 -7.098486 -6.395732 -0.139603 -0.710920 -10.828341 -11.138182 5.728830 -107.747414 -52.144839 82.553324 -34.852084 7.730222 0.950705 13.255338 -28.213135 4.054019 -12.181239 69.654091 -8.752908 -0.675882 15.932150 0.032469 -0.839370 -10.202646 6.018443 -3.105817 -30.350750 2.183183 35.989307 66.359991 31.149169 -7.574255 24.735541 2.027264 -0.255255 -11.430248 -1.113193
